# xmcd
#
# Track frame offsets: 
#        151
#        18448
#        35282
#        53771
#        70248
#        88922
#        108209
#        125028
#        141811
#        158011
#        173094
#        193709
#        207058
#        220464
#        234870
#        247670
#        261416
#        273442
#
# Disc length: 3787 seconds
#
# Revision: 0
# Processed by: cddbd v1.5.2PL0 Copyright (c) Steve Scherf et al.
# Submitted via: ExactAudioCopyFreeDBPlugin 1.0
#
DISCID=fa0ec912
DTITLE=Albert Ammons, Meade Lux Lewis, Pete Johnson - The Best of The 
DTITLE=Boogie Woogie Trio
DYEAR=2001
DGENRE=Blues
TTITLE0=Chicago In Mind
TTITLE1=Boogie Woogie Blues
TTITLE2=Backwater Blues
TTITLE3=Boogie Woogie Stomp
TTITLE4=Untitles Ammons Original
TTITLE5=Honky Tonk Train Blues
TTITLE6=Bass On Top
TTITLE7=Rising Tide Blues
TTITLE8=Whistlin' Blues
TTITLE9=Yancey Special
TTITLE10=Albert Ammons and Meade Lux Lewis - Twos and Fews
TTITLE11=Pete Johnson - Mr. Freddie Blues
TTITLE12=Pete Johnson - Dive Bomber
TTITLE13=Pete Johnson - Zero Hour
TTITLE14=Pete Johnson - Kaycee Feeling
TTITLE15=Pete Johnson - Light Out Mood
TTITLE16=Ammons, Lewis and Johnson - Boogie Woogie Prayer - Part 1
TTITLE17=Ammons, Lewis and Johnson - Boogie Woogie Prayer - Part 2
EXTD=
EXTT0=
EXTT1=
EXTT2=
EXTT3=
EXTT4=
EXTT5=
EXTT6=
EXTT7=
EXTT8=
EXTT9=
EXTT10=
EXTT11=
EXTT12=
EXTT13=
EXTT14=
EXTT15=
EXTT16=
EXTT17=
PLAYORDER=
